<svg width="60" height="60" viewBox="0 0 60 60" fill="none" xmlns="http://www.w3.org/2000/svg">
<rect x="0.533569" width="58.6006" height="60" rx="5" fill="#F2F2F2"/>
<path d="M24.9087 49.2531C24.1489 49.2531 23.5328 49.8659 23.5328 50.6164C23.5328 51.3717 24.1482 51.9852 24.9087 51.9852C25.6658 51.9852 26.2771 51.3717 26.2771 50.6164C26.2771 49.8659 25.6665 49.2531 24.9087 49.2531ZM24.9087 51.8038C24.2386 51.8038 23.7512 51.2851 23.7512 50.6157C23.7512 49.9511 24.2386 49.4324 24.9087 49.4324C25.5748 49.4324 26.0594 49.9511 26.0594 50.6157C26.0601 51.2851 25.5755 51.8038 24.9087 51.8038ZM25.6104 50.2593C25.6104 50.0057 25.4741 49.855 25.0682 49.855H24.398V51.3792H24.5856V50.6744H24.9292L25.368 51.3792H25.5926L25.1291 50.6744C25.4009 50.6696 25.6104 50.5585 25.6104 50.2593ZM24.8724 50.5278H24.5863V49.9879H25.0244C25.2127 49.9879 25.4091 50.0166 25.4091 50.2545C25.4091 50.5639 25.0901 50.5278 24.8724 50.5278ZM28.9954 39.4211C28.9961 39.1049 28.9988 38.6686 28.9105 38.4546C28.6963 37.9392 28.4717 37.7579 27.7228 37.2147C23.8244 34.3804 22.0371 31.9394 21.3621 31.0199C20.5817 31.8788 20.4763 31.9721 20.2367 32.1664C21.5381 33.9005 22.9564 35.6544 26.1025 38.1219C24.2646 37.8016 21.5784 37.4382 17.9422 35.698C17.9908 35.7212 17.7224 37.4266 17.7649 37.4512C20.4599 38.8533 22.6942 39.3618 25.7185 39.9412C23.7197 40.9351 21.6325 41.7128 19.5926 42.6419C19.6248 42.6276 20.4428 43.9179 20.5674 44.074C22.7209 43.3215 24.4727 42.6303 27.0575 41.3168C27.0575 41.387 27.0972 42.038 27.0972 42.8423C27.104 45.0658 27.2006 47.0071 27.6619 51.9559C27.6647 51.9886 28.8564 52.0472 29.2268 52.0486C29.222 51.9872 28.9858 40.8758 28.9954 39.4211ZM41.7648 35.6973C38.1271 37.4376 35.441 37.8009 33.6051 38.1212C36.7499 35.6537 38.1689 33.8998 39.4709 32.1657C39.2306 31.9715 39.1245 31.8781 38.3441 31.0192C37.6705 31.9394 35.8825 34.3804 31.9834 37.214C31.2366 37.7572 31.0114 37.9379 30.7978 38.4539C30.7088 38.6686 30.7115 39.1042 30.7129 39.4205C30.7225 40.8751 30.485 51.9872 30.4802 52.0465C30.8505 52.0451 32.0416 51.9865 32.0443 51.9538C32.5064 47.0058 32.6036 45.0638 32.6098 42.8403C32.6098 42.0359 32.6488 41.3843 32.6488 41.3147C35.2336 42.6283 36.9867 43.3201 39.1382 44.072C39.2642 43.9159 40.0822 42.6255 40.115 42.6398C38.0737 41.7108 35.9873 40.933 33.9877 39.9392C37.0127 39.3591 39.2464 38.8506 41.9414 37.4491C41.9852 37.4253 41.7169 35.7198 41.7648 35.6973ZM32.6885 31.5543C32.6885 29.932 31.3666 28.6171 29.7374 28.6171C28.1069 28.6171 26.7857 29.932 26.7857 31.5543C26.7857 33.178 28.1069 34.4922 29.7374 34.4922C31.3666 34.4915 32.6885 33.178 32.6885 31.5543ZM48.2289 24.2737C48.2145 24.2294 48.8771 26.4508 48.4623 28.0916C48.2624 28.8802 48.6327 29.5735 48.7553 30.3383C49.14 32.7615 49.0558 34.8044 48.8046 36.3428C49.9806 29.7936 49.0832 27.1604 48.2289 24.2737ZM45.1519 25.7004C45.5174 26.8401 46.4313 27.5667 47.1945 27.324C47.4108 27.2559 47.5902 27.1175 47.7305 26.928C48.0851 26.4481 48.1364 25.6513 47.916 24.8224C47.5491 23.4482 46.6353 22.8013 45.8727 23.0426C45.1101 23.2846 44.7877 24.5607 45.1519 25.7004ZM47.7408 29.4398C46.1965 29.3315 44.0949 28.9443 42.5992 28.5898C42.5636 28.5817 42.5109 29.6539 42.4411 30.1051C43.3563 30.4998 47.2514 31.0192 47.2808 31.0219C45.733 33.6524 42.6855 35.2447 42.5732 35.3088L42.7491 37.0647C43.8725 36.5153 46.918 34.3027 47.3657 32.7928C46.7742 34.786 45.6838 37.2358 44.3681 39.3639C44.4427 39.4573 44.9116 40.2875 44.8863 40.3209C47.0042 37.353 47.851 33.9612 47.8537 33.9251C47.456 39.0578 46.7112 41.7837 44.1812 45.1906C44.175 45.1967 44.2284 45.2764 44.2284 45.2764C47.9674 41.3427 49.485 34.8671 48.1803 30.1447C48.1296 29.9606 48.0386 29.4603 47.7408 29.4398ZM17.1077 28.5898C15.6113 28.945 13.659 29.3669 12.1113 29.4398C11.6691 29.4596 11.5787 29.9606 11.5274 30.1453C10.2213 34.8671 11.7403 41.3427 15.4778 45.2764C15.4778 45.2764 15.5305 45.1967 15.5258 45.1906C12.9971 41.7837 12.2516 39.0578 11.8546 33.9251C11.8566 33.9619 12.7048 37.353 14.822 40.3216C14.796 40.2868 15.2663 39.4579 15.3402 39.3646C14.0232 37.2365 12.9334 34.7867 12.342 32.7935C12.7897 34.3027 15.8372 36.5139 16.9585 37.0647L17.1365 35.3088C17.0208 35.2454 13.9753 33.6531 12.4275 31.0219C12.4563 31.0192 16.3513 30.4991 17.2686 30.1051C17.196 29.6532 17.1426 28.581 17.1077 28.5898ZM11.205 28.0909C10.7888 26.4502 11.4528 24.2294 11.4404 24.2737C10.5848 27.1604 9.6887 29.795 10.8634 36.3422C10.6135 34.8037 10.7319 31.4527 10.912 30.3376C11.0379 29.5728 11.4042 28.8802 11.205 28.0909ZM39.2669 17.9814C39.933 21.2806 39.6427 24.2737 39.5113 26.8537C39.5126 26.8128 40.5326 27.1952 40.5326 27.1952C41.0125 22.4135 40.486 19.3461 40.4806 19.31C42.0372 20.7673 42.1255 20.8784 44.3742 23.7236C44.5139 23.5375 44.6172 23.3282 44.7535 23.1381C43.9758 22.0358 42.8374 20.554 40.9118 18.7619C40.8742 18.7272 43.37 19.7333 45.7762 21.9118C45.8022 21.935 46.0513 21.3392 46.0513 21.3392C46.0513 21.3392 44.0176 19.1096 40.7099 17.764L43.5384 17.203C43.049 16.7443 42.9032 16.6352 42.6896 16.3919C39.4243 16.8963 39.0917 17.0244 39.2669 17.9814ZM30.4466 16.552C33.0807 16.6073 35.7237 17.0844 36.5034 17.3012C36.4706 17.3121 33.1156 18.6508 31.9232 19.3809C32.1785 19.6787 32.4037 20.0005 32.6734 20.2881C33.7824 19.7517 35.1994 19.1034 37.3002 18.3618C37.5377 20.6794 37.5679 23.4905 37.3872 26.1932C37.3851 26.2191 38.4961 26.5408 38.4961 26.5408C38.7939 24.1005 38.6775 20.5546 38.4667 18.8294C38.2531 17.0776 38.3024 16.8683 37.8903 16.4859C37.8725 16.4709 35.5547 14.5685 32.4722 13.3115C32.4722 13.3115 31.9875 13.713 31.8684 13.7853C33.3135 14.4587 34.9564 15.1888 36.6122 16.4205C36.2796 16.3264 32.8836 15.58 30.4466 15.6509C30.4692 15.6482 30.4322 16.552 30.4466 16.552ZM38.6111 15.6864C39.3566 15.6864 39.9597 15.0858 39.9597 14.3428C39.9597 13.6005 39.3566 13 38.6111 13C37.8663 13 37.2639 13.6005 37.2639 14.3428C37.2639 15.0858 37.8656 15.6864 38.6111 15.6864ZM13.774 21.9118C16.1802 19.7339 18.676 18.7278 18.6383 18.7626C16.7134 20.5546 15.5764 22.0358 14.7981 23.1381C14.9329 23.3276 15.0377 23.5375 15.178 23.7236C17.426 20.8791 17.513 20.7673 19.0696 19.3093C19.0669 19.3468 18.5398 22.4142 19.0196 27.1952C19.0196 27.1952 20.0389 26.8128 20.041 26.8537C19.9102 24.273 19.6207 21.2813 20.284 17.9814C20.4599 17.0244 20.1272 16.8949 16.862 16.3919C16.6477 16.6352 16.5012 16.7443 16.0131 17.203L18.843 17.764C15.534 19.1096 13.5009 21.3392 13.5009 21.3392C13.5009 21.3392 13.7501 21.9357 13.774 21.9118ZM21.0849 18.8287C20.874 20.5546 20.7577 24.0999 21.0534 26.5401C21.0534 26.5401 22.1665 26.2177 22.1644 26.1925C21.983 23.4898 22.0124 20.6787 22.2513 18.3611C24.3515 19.1027 25.7685 19.7517 26.8768 20.2874C27.1458 19.9991 27.371 19.678 27.6263 19.3802C26.4352 18.6501 23.0803 17.3107 23.0475 17.3005C23.8258 17.0844 26.4708 16.6066 29.1036 16.5514C29.1179 16.5514 29.0837 15.6482 29.1036 15.6502C26.6666 15.5793 23.2713 16.3257 22.9386 16.4198C24.5952 15.1881 26.2395 14.4587 27.6818 13.7846C27.5654 13.7123 27.0787 13.3108 27.0787 13.3108C23.9976 14.5678 21.6798 16.4702 21.662 16.4852C21.2492 16.8676 21.2991 17.0769 21.0849 18.8287ZM20.9411 15.6864C21.6859 15.6864 22.289 15.0858 22.289 14.3428C22.289 13.6005 21.6866 13 20.9411 13C20.1957 13 19.5933 13.6005 19.5933 14.3428C19.5926 15.0858 20.1957 15.6864 20.9411 15.6864ZM12.3125 27.3704C13.0498 27.6846 14.0307 27.0487 14.5024 25.9478C14.9768 24.8483 14.7639 23.7025 14.0273 23.3882C13.2894 23.0733 12.3105 23.71 11.8375 24.8101C11.4979 25.5981 11.513 26.4113 11.8183 26.9246C11.9388 27.1243 12.1051 27.2811 12.3125 27.3704Z" fill="black"/>
</svg>
